<svg xmlns="http://www.w3.org/2000/svg" fill="#fdfdfd" viewBox="0 0 20 20">
    <path d="M17 2c1.657 0 3 1.343 3 3v10c0 1.657-1.343 3-3 3h-14c-1.657 0-3-1.343-3-3v-10c0-1.657 1.343-3 3-3h14zM9.5 3h-6.5c-1.054 0-1.918 0.816-1.995 1.85l-0.005 0.15v2h3v6h-3v2c0 1.054 0.816 1.918 1.85 1.995l0.15 0.005h6.5v-4.041c-1.362-0.229-2.413-1.376-2.495-2.783l-0.005-0.176c0-1.487 1.081-2.72 2.5-2.959v-4.041zM17 3h-6.5v4.042c1.363 0.228 2.413 1.375 2.495 2.782l0.005 0.176c0 1.486-1.080 2.72-2.5 2.958v4.042h6.5c1.054 0 1.918-0.816 1.995-1.85l0.005-0.15v-2h-3v-6h3v-2c0-1.054-0.816-1.918-1.85-1.995l-0.15-0.005zM3 8h-2v4h2v-4zM19 8h-2v4h2v-4zM8 10c0 0.932 0.637 1.715 1.5 1.937v-3.874c-0.863 0.222-1.5 1.005-1.5 1.937zM10.501 8.063v3.874c0.862-0.223 1.499-1.005 1.499-1.937s-0.637-1.714-1.499-1.937z"></path>
</svg>